<svg width="60" height="60" viewBox="0 0 60 60" fill="none" xmlns="http://www.w3.org/2000/svg">
<path d="M47.5 2.5L35 15V42.5L47.5 31.25V2.5ZM2.5 15V51.625C2.5 52.25 3.125 52.875 3.75 52.875C4 52.875 4.125 52.75 4.375 52.75C7.75 51.125 12.625 50 16.25 50C21.125 50 26.375 51 30 53.75V15C26.375 12.25 21.125 11.25 16.25 11.25C11.375 11.25 6.125 12.25 2.5 15ZM57.5 48.75V15C56 13.875 54.375 13.125 52.5 12.5V46.25C49.75 45.375 46.75 45 43.75 45C39.5 45 33.375 46.625 30 48.75V53.75C33.375 51.625 39.5 50 43.75 50C47.875 50 52.125 50.75 55.625 52.625C55.875 52.75 56 52.75 56.25 52.75C56.875 52.75 57.5 52.125 57.5 51.5V48.75Z" fill="#FEFEFE"/>
</svg>
