<svg width="25" height="29" viewBox="0 0 25 29" fill="none" xmlns="http://www.w3.org/2000/svg">
<path d="M2.1875 25.8437C2.18579 25.437 2.26465 25.0339 2.41952 24.6578C2.57439 24.2817 2.80221 23.94 3.08983 23.6523C3.37745 23.3647 3.71918 23.1369 4.0953 22.982C4.47143 22.8271 4.87449 22.7483 5.28125 22.75H22.8125V2.125H5.28125C4.87449 2.12329 4.47143 2.20215 4.0953 2.35702C3.71918 2.51189 3.37745 2.73971 3.08983 3.02733C2.80221 3.31495 2.57439 3.65668 2.41952 4.0328C2.26465 4.40893 2.18579 4.81199 2.1875 5.21875V25.8437Z" stroke="#FEFEFE" stroke-width="3" stroke-linecap="round" stroke-linejoin="round"/>
<path d="M2.1875 25.8438V26.875H20.75" stroke="#FEFEFE" stroke-width="3" stroke-linecap="round" stroke-linejoin="round"/>
</svg>
