<svg width="23" height="27" viewBox="0 0 23 27" fill="none" xmlns="http://www.w3.org/2000/svg">
<path d="M23 1.03846V21.8077C23 22.0831 22.8899 22.3472 22.6938 22.542C22.4977 22.7367 22.2318 22.8462 21.9545 22.8462H4.18182C3.62727 22.8462 3.09544 23.065 2.70332 23.4545C2.3112 23.844 2.09091 24.3722 2.09091 24.9231H19.8636C20.1409 24.9231 20.4068 25.0325 20.6029 25.2272C20.7989 25.422 20.9091 25.6861 20.9091 25.9615C20.9091 26.237 20.7989 26.5011 20.6029 26.6958C20.4068 26.8906 20.1409 27 19.8636 27H1.04545C0.768183 27 0.502267 26.8906 0.306207 26.6958C0.110146 26.5011 0 26.237 0 25.9615V4.15385C0.00344645 3.05323 0.445136 1.99867 1.22863 1.22042C2.01213 0.442159 3.07379 0.0034234 4.18182 0H21.9545C22.2318 0 22.4977 0.109409 22.6938 0.304158C22.8899 0.498908 23 0.763044 23 1.03846Z" fill="#FEFEFE"/>
</svg>
