<svg width="22" height="27" fill="none" xmlns="http://www.w3.org/2000/svg"><path d="M1.692 8.438v16.874c0 .929.762 1.688 1.693 1.688h15.23c.931 0 1.693-.76 1.693-1.688V8.438H1.692ZM6.77 23.624H5.077V11.812h1.692v11.813Zm3.385 0H8.462V11.812h1.692v11.813Zm3.385 0h-1.693V11.812h1.693v11.813Zm3.384 0h-1.692V11.812h1.692v11.813Zm3.808-20.25h-5.5v-2.11C15.23.57 14.66 0 13.96 0H8.038C7.34 0 6.77.57 6.77 1.266v2.109h-5.5C.571 3.375 0 3.945 0 4.641V6.75h22V4.64c0-.695-.571-1.265-1.27-1.265Zm-7.193 0H8.463V1.709h5.077v1.666Z" fill="#FEFEFE"/></svg>